# AST/ASF file generated using VICON BodyLanguage
# -----------------------------------------------
:version 1.10
:name VICON
:units
  mass 1.0
  length 0.45
  angle deg
:documentation
   .ast/.asf automatically generated from VICON data using
   VICON BodyBuilder and BodyLanguage model FoxedUp or BRILLIANT.MOD
:root
   order TX TY TZ RX RY RZ
   axis XYZ
   position 0 0 0  
   orientation 0 0 0 
:bonedata
  begin
     id 1 
     name lhipjoint
     direction 0.646657 -0.683706 0.338203 
     length 2.4948 
     axis 0 0 0  XYZ
  end
  begin
     id 2 
     name lfemur
     direction 0.34202 -0.939693 0  
     length 6.79491  
     axis 0 0 20  XYZ
    dof rx ry rz
    limits (-160.0 20.0)
           (-70.0 70.0)
           (-60.0 70.0)
  end
  begin
     id 3 
     name ltibia
     direction 0.34202 -0.939693 0   
     length 7.56807   
     axis 0 0 20   XYZ
    dof rx
    limits (-10.0 170.0)
  end
  begin
     id 4 
     name lfoot
     direction 0.0679796 -0.186772 0.980048   
     length 2.53018   
     axis -90 7.62852e-016 20   XYZ
    dof rx rz
    limits (-45.0 90.0)
           (-70.0 20.0)
  end
  begin
     id 5 
     name ltoes
     direction 1.53625e-011 -4.21881e-011 1   
     length 1.26912   
     axis -90 7.62852e-016 20   XYZ
    dof rx
    limits (-90.0 20.0)
  end
  begin
     id 6 
     name rhipjoint
     direction -0.618868 -0.704065 0.348274   
     length 2.42265  
     axis 0 0 0  XYZ 
  end
  begin
     id 7 
     name rfemur
     direction -0.34202 -0.939693 0   
     length 6.73814   
     axis 0 0 -20   XYZ
    dof rx ry rz
    limits (-160.0 20.0)
           (-70.0 70.0)
           (-70.0 60.0)
  end
  begin
     id 8 
     name rtibia
     direction -0.34202 -0.939693 0   
     length 7.66799   
     axis 0 0 -20   XYZ
    dof rx
    limits (-10.0 170.0)
 end
 begin
     id 9 
     name rfoot
     direction -0.0727352 -0.199838 0.977125   
     length 2.57224  
     axis -90 -7.62852e-016 -20   XYZ
    dof rx rz
    limits (-45.0 90.0)
           (-20.0 70.0)
  end
  begin
     id 10 
     name rtoes
     direction -1.53501e-011 -4.21858e-011 1   
     length 1.28858   
     axis -90 -7.62852e-016 -20   XYZ
    dof rx
    limits (-90.0 20.0)
  end
  begin
     id 11 
     name lowerback
     direction -0.0172471 0.995767 -0.0902851   
     length 2.20206   
     axis 0 0 0   XYZ
    dof rx ry rz
    limits (-20.0 45.0)
           (-30.0 30.0)
           (-30.0 30.0)
  end
  begin
     id 12 
     name upperback
     direction -0.000110737 0.999714 0.0239043   
     length 2.19523   
     axis 0 0 0   XYZ
    dof rx ry rz
    limits (-20.0 45.0)
           (-30.0 30.0)
           (-30.0 30.0)
  end
  begin
     id 13 
     name thorax
     direction 0.00704869 0.997783 0.0661741   
     length 2.21977   
     axis 0 0 0   XYZ
    dof rx ry rz
    limits (-20.0 45.0)
           (-30.0 30.0)
           (-30.0 30.0)
  end
  begin
     id 14 
     name lowerneck
     direction -0.00407501 0.995527 0.0943846   
     length 1.83142   
     axis 0 0 0   XYZ
    dof rx ry rz
    limits (-20.0 45.0)
           (-30.0 30.0)
           (-30.0 30.0)
  end
  begin
     id 15 
     name upperneck
     direction 0.0640586 0.986486 -0.150807   
     length 1.84616   
     axis 0 0 0   XYZ
    dof rx ry rz
    limits (-20.0 45.0)
           (-30.0 30.0)
           (-30.0 30.0)
  end
  begin
     id 16
     name head
     direction 0.0188017 0.99791 -0.0618239  
     length 1.85932  
     axis 0 0 0   XYZ
    dof rx ry rz
    limits (-20.0 45.0)
           (-30.0 30.0)
           (-30.0 30.0)
  end
  begin
     id 17 
     name lclavicle
     direction 0.976074 0.206905 0.066852  
     length 3.81043  
     axis 0 0 0   XYZ
    dof ry rz
    limits (-20.0 10.0)
           (0.0 20.0)
  end
  begin
     id 18 
     name lhumerus
     direction 1 -4.48971e-011 1.86916e-027   
     length 5.37587   
     axis 180 -30 -90   XYZ
    dof rx ry rz
    limits (-60.0 90.0)
           (-90.0 90.0)
           (-90.0 90.0)
  end
  begin
     id 19
     name lradius
     direction 1 -4.48968e-011 1.69187e-027   
     length 3.35977   
     axis 180 -30 -90   XYZ
    dof rx
    limits (-10.0 170.0)
  end
  begin
     id 20
     name lwrist
     direction 1 -4.48968e-011 5.8978e-027   
     length 1.67988   
     axis -3.27506e-015 90 90   XYZ
    dof ry
    limits (-180.0 0.0)
 end
  begin
     id 21 
     name lhand
     direction 1 -4.49028e-011 1.18071e-026   
     length 0.561859   
     axis -7.52654e-015 90 90   XYZ
    dof rx rz
    limits (-90.0 90.0)
           (-45.0 45.0)
  end
  begin
     id 22 
     name lfingers
     direction 1 -4.48927e-011 2.35758e-026   
     length 0.452985   
     axis -1.50534e-014 90 90   XYZ
    dof rx
    limits (0.0 90.0)
  end
  begin
     id 23
     name lthumb
     direction 0.707107 -6.34898e-011 0.707107   
     length 0.650399   
     axis -90 45 5.69224e-014   XYZ
    dof rx rz
    limits (-45.0 45.0)
           (-45.0 45.0)
  end
  begin
     id 24 
     name rclavicle
     direction -0.988403 0.151789 0.00439714   
     length 3.6942  
     axis 0 0 0   XYZ 
    dof ry rz
    limits (-10.0 20.0)
           (-20.0 0.0)
  end
  begin
     id 25 
     name rhumerus
     direction -1 -4.48978e-011 1.62495e-027  
     length 5.22819   
     axis 180 30 90   XYZ
    dof rx ry rz
    limits (-90.0 60.0)
           (-90.0 90.0)
           (-90.0 90.0)
  end
  begin
     id 26 
     name rradius
     direction -1 -4.48961e-011 3.47796e-027   
     length 3.40764   
     axis 180 30 90   XYZ
    dof rx
    limits (-10.0 170.0)
  end
  begin
     id 27 
     name rwrist
     direction -1 -4.48949e-011 5.89602e-027   
     length 1.70382   
     axis -3.27506e-015 -90 -90   XYZ
    dof ry
    limits (-180.0 0.0)
  end
  begin
     id 28
     name rhand
     direction -1 -4.48977e-011 1.17973e-026   
     length 0.583255   
     axis -7.52654e-015 -90 -90   XYZ
    dof rx rz
    limits (-90.0 90.0)
           (-45.0 45.0)
  end
  begin
     id 29
     name rfingers
     direction -1 -4.49099e-011 2.36408e-026   
     length 0.470235   
     axis -1.50534e-014 -90 -90   XYZ
    dof rx
    limits (0.0 90.0)
  end
  begin
     id 30
     name rthumb
     direction -0.707107 -6.35011e-011 0.707107   
     length 0.675167   
     axis -90 -45 -5.69224e-014   XYZ
    dof rx rz
    limits (-45.0 45.0)
           (-45.0 45.0)
  end
:hierarchy
  begin
    root lhipjoint rhipjoint lowerback
    lhipjoint lfemur
    lfemur ltibia
    ltibia lfoot
    lfoot ltoes
    rhipjoint rfemur
    rfemur rtibia
    rtibia rfoot
    rfoot rtoes
    lowerback upperback
    upperback thorax
    thorax lowerneck lclavicle rclavicle
    lowerneck upperneck
    upperneck head
    lclavicle lhumerus
    lhumerus lradius
    lradius lwrist
    lwrist lhand lthumb
    lhand lfingers
    rclavicle rhumerus
    rhumerus rradius
    rradius rwrist
    rwrist rhand rthumb
    rhand rfingers
  end

#!OML:ASF G:\JayActor3\Patient Classification 1\Patient 1\Session 2\male.ASF
:FULLY-SPECIFIED
:DEGREES
1958
root -11.9462 14.405 -7.16836 393.904 78.8731 20.5122
lowerback 19.241 -5.27348 -5.6636
upperback 13.8614 -6.59409 -0.129767
thorax 5.0767 -3.3321 3.95165
lowerneck 2.99759 -18.7086 -17.0379
upperneck -15.2625 -24.2803 37.9658
head 2.79568 -13.4026 13.1323
rclavicle 8.50798e-014 -3.89618e-014
rhumerus -33.6221 1.52852 -67.9517
rradius 63.6143
rwrist 7.18153
rhand -46.9004 13.2368
rfingers 7.12502
rthumb -19.6115 -15.7941
lclavicle 8.50798e-014 -3.89618e-014
lhumerus 30.2563 -3.5644 53.1798
lradius 91.5221
lwrist 8.00171
lhand -26.4545 11.8162
lfingers 7.12502
lthumb 0.106758 41.7959
rfemur -71.4514 -8.18031 43.4783
rtibia 51.6661
rfoot -11.0983 -17.9839
rtoes 21.2205
lfemur -17.939 13.3159 -32.6723
ltibia 61.3739
lfoot 0.537659 -34.0198
ltoes 22.2149
1959
root -11.7703 14.3974 -7.18534 393.252 78.7017 19.7615
lowerback 19.2837 -5.30052 -5.52031
upperback 13.7881 -6.62521 -0.0188634
thorax 4.96897 -3.34301 4.00358
lowerneck 3.05548 -18.7512 -17.0639
upperneck -15.2994 -24.3421 37.9574
head 2.79375 -13.441 13.1242
rclavicle 7.15625e-015 7.23576e-014
rhumerus -34.001 1.36318 -67.606
rradius 62.6355
rwrist 6.93503
rhand -46.892 13.2247
rfingers 7.12502
rthumb -19.6035 -15.8069
lclavicle 7.15625e-015 7.23576e-014
lhumerus 30.2786 -3.49311 53.1716
lradius 91.5057
lwrist 8.02526
lhand -26.4137 11.7611
lfingers 7.12502
lthumb 0.146215 41.7408
rfemur -71.4494 -7.88527 43.1011
rtibia 52.7413
rfoot -12.2462 -17.9466
rtoes 22.0807
lfemur -17.1277 13.2335 -32.6842
ltibia 60.7647
lfoot 1.30304 -33.6922
ltoes 22.032
1960
root -11.5949 14.3908 -7.20302 392.456 78.4936 18.8711
lowerback 19.3287 -5.31504 -5.37335
upperback 13.7249 -6.63815 0.0846137
thorax 4.86814 -3.34435 4.04304
lowerneck 3.10491 -18.7893 -17.0772
upperneck -15.3248 -24.3979 37.9375
head 2.79066 -13.4751 13.1107
rclavicle -5.56597e-015 -7.15625e-015
rhumerus -34.3186 1.20354 -67.2692
rradius 61.6233
rwrist 6.6838
rhand -46.8824 13.1737
rfingers 7.12502
rthumb -19.5943 -15.8589
lclavicle -5.56597e-015 -7.15625e-015
lhumerus 30.3038 -3.39543 53.1557
lradius 91.4854
lwrist 8.07265
lhand -26.369 11.7101
lfingers 7.12502
lthumb 0.189397 41.6898
rfemur -71.4187 -7.57453 42.7552
rtibia 53.7894
rfoot -13.3062 -17.9316
rtoes 22.8838
lfemur -16.3158 13.1174 -32.7068
ltibia 60.1256
lfoot 2.06067 -33.3159
ltoes 21.7848
1961
root -11.4204 14.3852 -7.2213 391.55 78.2525 17.8664
lowerback 19.3693 -5.32039 -5.22401
upperback 13.6697 -6.63768 0.183253
thorax 4.77626 -3.3389 4.0735
lowerneck 3.13934 -18.8254 -17.0805
upperneck -15.3354 -24.4519 37.9008
head 2.78884 -13.5055 13.0883
rclavicle -1.82882e-014 2.14687e-014
rhumerus -34.5716 1.05341 -66.9422
rradius 60.5813
rwrist 6.43498
rhand -46.8848 13.0859
rfingers 7.12502
rthumb -19.5965 -15.9465
lclavicle -1.82882e-014 2.14687e-014
lhumerus 30.3182 -3.27642 53.1325
lradius 91.4736
lwrist 8.15363
lhand -26.3678 11.669
lfingers 7.12502
lthumb 0.19048 41.6486
rfemur -71.3602 -7.24615 42.4439
rtibia 54.7901
rfoot -14.2901 -17.9528
rtoes 23.6639
lfemur -15.5201 12.9673 -32.742
ltibia 59.4672
lfoot 2.8208 -32.8856
ltoes 21.4869
1962
root -11.2472 14.3807 -7.24012 390.588 77.9843 16.7989
lowerback 19.4083 -5.32054 -5.07869
upperback 13.6196 -6.63021 0.279808
thorax 4.69075 -3.33042 4.10254
lowerneck 3.16204 -18.8582 -17.0809
upperneck -15.3347 -24.5024 37.8484
head 2.78763 -13.5318 13.0594
rclavicle -7.95139e-015 3.65764e-014
rhumerus -34.758 0.917116 -66.6234
rradius 59.5153
rwrist 6.17999
rhand -46.8678 13.0358
rfingers 7.12502
rthumb -19.5802 -15.9982
lclavicle -7.95139e-015 3.65764e-014
lhumerus 30.3085 -3.13713 53.1038
lradius 91.4797
lwrist 8.27449
lhand -26.3958 11.6541
lfingers 7.12502
lthumb 0.163447 41.6338
rfemur -71.2779 -6.90683 42.1637
rtibia 55.7369
rfoot -15.1994 -18.0091
rtoes 24.4187
lfemur -14.7513 12.7818 -32.7949
ltibia 58.803
lfoot 3.59008 -32.3951
ltoes 21.1538
1963
root -11.0759 14.3772 -7.25937 389.587 77.6865 15.6786
lowerback 19.4437 -5.31466 -4.94579
upperback 13.568 -6.61684 0.378716
thorax 4.60694 -3.32035 4.13976
lowerneck 3.19066 -18.8843 -17.0829
upperneck -15.3327 -24.5443 37.7795
head 2.78035 -13.5535 13.0283
rclavicle 1.33583e-013 -1.47101e-013
rhumerus -34.8853 0.806272 -66.3094
rradius 58.4337
rwrist 5.917
rhand -46.8247 12.9913
rfingers 7.12502
rthumb -19.5387 -16.0469
lclavicle 1.33583e-013 -1.47101e-013
lhumerus 30.2566 -2.97977 53.0771
lradius 91.5074
lwrist 8.42197
lhand -26.4489 11.6573
lfingers 7.12502
lthumb 0.112139 41.637
rfemur -71.1804 -6.54852 41.9105
rtibia 56.6336
rfoot -16.048 -18.0885
rtoes 25.1697
lfemur -14.0309 12.5792 -32.8657
ltibia 58.1519
lfoot 4.40197 -31.8402
ltoes 20.8325
1964
root -10.9069 14.3745 -7.27886 388.602 77.3672 14.5497
lowerback 19.465 -5.30601 -4.8215
upperback 13.5154 -6.60091 0.478249
thorax 4.53038 -3.3101 4.18066
lowerneck 3.21742 -18.9072 -17.0848
upperneck -15.3336 -24.5808 37.704
head 2.76977 -13.5722 12.9964
rclavicle 4.53229e-014 3.97569e-016
rhumerus -34.9528 0.708303 -66.0048
rradius 57.342
rwrist 5.64257
rhand -46.7653 12.9904
rfingers 7.12502
rthumb -19.4816 -16.0536
lclavicle 4.53229e-014 3.97569e-016
lhumerus 30.1681 -2.80557 53.0478
lradius 91.5564
lwrist 8.57889
lhand -26.51 11.686
lfingers 7.12502
lthumb 0.0531701 41.6658
rfemur -71.0878 -6.16673 41.6705
rtibia 57.4919
rfoot -16.8566 -18.1787
rtoes 25.8918
lfemur -13.3871 12.3651 -32.9568
ltibia 57.5359
lfoot 5.22775 -31.2251
ltoes 20.4317
1965
root -10.7405 14.372 -7.29836 387.66 77.0312 13.4441
lowerback 19.4819 -5.29499 -4.71323
upperback 13.4585 -6.5845 0.580685
thorax 4.45399 -3.3011 4.23308
lowerneck 3.25267 -18.9246 -17.0924
upperneck -15.3427 -24.6093 37.6255
head 2.75369 -13.588 12.968
rclavicle -2.46493e-014 -4.65156e-014
rhumerus -34.9723 0.624203 -65.7076
rradius 56.255
rwrist 5.34563
rhand -46.675 13.0255
rfingers 7.12502
rthumb -19.3948 -16.0273
lclavicle -2.46493e-014 -4.65156e-014
lhumerus 30.0412 -2.61351 53.0187
lradius 91.6197
lwrist 8.7331
lhand -26.5737 11.7277
lfingers 7.12502
lthumb -0.00839189 41.7074
rfemur -71.0052 -5.76361 41.4311
rtibia 58.3257
rfoot -17.6398 -18.2617
rtoes 26.5468
lfemur -12.8265 12.1543 -33.0629
ltibia 56.9745
lfoot 6.13569 -30.5467
ltoes 20.0669
1966
root -10.577 14.3697 -7.31766 386.796 76.6844 12.4032
lowerback 19.4971 -5.28196 -4.61787
upperback 13.4046 -6.56658 0.679944
thorax 4.38325 -3.2922 4.28858
lowerneck 3.28597 -18.9411 -17.098
upperneck -15.3651 -24.6333 37.5568
head 2.73478 -13.6028 12.944
rclavicle 9.30312e-014 -4.69132e-014
rhumerus -34.9476 0.535371 -65.4256
rradius 55.1834
rwrist 5.02203
rhand -46.5629 13.0995
rfingers 7.12502
rthumb -19.287 -15.9641
lclavicle 9.30312e-014 -4.69132e-014
lhumerus 29.9076 -2.40605 52.9817
lradius 91.6836
lwrist 8.86678
lhand -26.6216 11.7804
lfingers 7.12502
lthumb -0.0546145 41.7602
rfemur -70.9354 -5.34686 41.1791
rtibia 59.1459
rfoot -18.4135 -18.3256
rtoes 27.077
lfemur -12.3537 11.9559 -33.1817
ltibia 56.485
lfoot 7.12248 -29.812
ltoes 19.6877
1967
root -10.4168 14.3675 -7.33654 386.033 76.3313 11.4538
lowerback 19.5171 -5.26753 -4.53733
upperback 13.3555 -6.54797 0.772483
thorax 4.3167 -3.28355 4.34507
lowerneck 3.30615 -18.9577 -17.0964
upperneck -15.395 -24.6539 37.498
head 2.71612 -13.6161 12.922
rclavicle 2.14687e-014 5.1684e-015
rhumerus -34.8884 0.435509 -65.1645
rradius 54.142
rwrist 4.67178
rhand -46.4406 13.1598
rfingers 7.12502
rthumb -19.1694 -15.9155
lclavicle 2.14687e-014 5.1684e-015
lhumerus 29.779 -2.18307 52.9305
lradius 91.7367
lwrist 8.96836
lhand -26.6612 11.8093
lfingers 7.12502
lthumb -0.0928526 41.789
rfemur -70.8805 -4.9237 40.909
rtibia 59.9593
rfoot -19.1924 -18.3661
rtoes 27.4625
lfemur -11.9738 11.7803 -33.3089
ltibia 56.0814
lfoot 8.22995 -29.0193
ltoes 19.334
1968
root -10.2599 14.3655 -7.35477 385.39 75.9778 10.6266
lowerback 19.5513 -5.25302 -4.47339
upperback 13.3147 -6.53019 0.852277
thorax 4.25318 -3.2755 4.39801
lowerneck 3.31018 -18.9756 -17.0774
upperneck -15.434 -24.6714 37.4546
head 2.69746 -13.6285 12.9021
rclavicle 6.36111e-015 9.14409e-015
rhumerus -34.8017 0.316409 -64.932
rradius 53.1357
rwrist 4.30538
rhand -46.3024 13.1924
rfingers 7.12502
rthumb -19.0365 -15.896
lclavicle 6.36111e-015 9.14409e-015
lhumerus 29.6715 -1.95055 52.8531
lradius 91.7742
lwrist 9.05946
lhand -26.7078 11.8351
lfingers 7.12502
lthumb -0.137843 41.8148
rfemur -70.8334 -4.51001 40.6193
rtibia 60.7644
rfoot -19.9775 -18.3779
rtoes 27.7133
lfemur -11.6814 11.6348 -33.4386
ltibia 55.7727
lfoot 9.5257 -28.1456
ltoes 19.0362
